<?xml version="1.0" encoding="UTF-8" standalone="no"?>
<svg
   xmlns:dc="http://purl.org/dc/elements/1.1/"
   xmlns:cc="http://creativecommons.org/ns#"
   xmlns:rdf="http://www.w3.org/1999/02/22-rdf-syntax-ns#"
   xmlns:svg="http://www.w3.org/2000/svg"
   xmlns="http://www.w3.org/2000/svg"
   xmlns:sodipodi="http://sodipodi.sourceforge.net/DTD/sodipodi-0.dtd"
   xmlns:inkscape="http://www.inkscape.org/namespaces/inkscape"
   version="1.0"
   width="220.000000pt"
   height="267.000000pt"
   viewBox="0 0 220.000000 267.000000"
   preserveAspectRatio="xMidYMid meet"
   id="svg6"
   sodipodi:docname="herb-pilica.svg"
   inkscape:version="0.92.4 (5da689c313, 2019-01-14)">
  <metadata
     id="metadata12">
    <rdf:RDF>
      <cc:Work
         rdf:about="">
        <dc:format>image/svg+xml</dc:format>
        <dc:type
           rdf:resource="http://purl.org/dc/dcmitype/StillImage" />
      </cc:Work>
    </rdf:RDF>
  </metadata>
  <defs
     id="defs10" />
  <sodipodi:namedview
     pagecolor="#ffffff"
     bordercolor="#666666"
     borderopacity="1"
     objecttolerance="10"
     gridtolerance="10"
     guidetolerance="10"
     inkscape:pageopacity="0"
     inkscape:pageshadow="2"
     inkscape:window-width="1920"
     inkscape:window-height="1017"
     id="namedview8"
     showgrid="false"
     inkscape:zoom="5.12"
     inkscape:cx="198.26607"
     inkscape:cy="207.66202"
     inkscape:window-x="-8"
     inkscape:window-y="-8"
     inkscape:window-maximized="1"
     inkscape:current-layer="svg6" />
  <g
     id="shield"
     transform="matrix(0.0989253,0,0,-0.1,0.70788815,266.56328)"
     style="fill:#ec2a32;fill-opacity:1;stroke:#000000;stroke-width:37.5;stroke-miterlimit:4;stroke-dasharray:none;stroke-opacity:1">
    <path
       id="path916"
       d="M 21.618599,2635.2167 C 9.7065525,2624.2283 13.677235,937.01581 24.59661,844.11423 49.413371,639.33118 103.01757,515.4624 214.19667,401.58305 277.72758,337.65078 306.51503,316.673 382.95065,280.7111 434.56952,255.73756 531.85122,219.77566 600.34549,199.79682 877.30055,118.88254 968.62623,80.922754 1060.9445,9.9978883 l 47.6483,-35.9619023 51.6188,39.957669 c 70.4796,54.941795 174.7101,101.892065 323.6106,145.845495 366.2954,108.88465 464.5697,158.83174 562.8442,289.6931 51.6188,69.92592 67.5016,98.89523 94.3036,173.81586 51.6189,149.84126 50.6263,129.86242 54.5969,1107.82629 l 3.9707,911.0349 H 1113.5561 c -596.59493,0 -1088.95949,-2.9968 -1091.937501,-6.9926 z"
       inkscape:connector-curvature="0"
       style="fill:#ec2a32;fill-opacity:1;stroke:#000000;stroke-width:37.34254456;stroke-miterlimit:4;stroke-dasharray:none;stroke-opacity:1" />
  </g>
  <g
     transform="matrix(0.1,0,0,-0.1,46.009814,268.96)"
     id="star"
     style="fill:#000000;stroke:#000000;stroke-width:30;stroke-miterlimit:4;stroke-dasharray:none;stroke-opacity:1">
    <path
       d="m 381.818,2534.2864 c 0,-2 16,-73 35,-157 20,-83 34,-154 31,-156 -2,-2 -67,-23 -146,-48 -138,-42 -158,-50 -149,-60 3,-2 69,-24 147,-48 79,-25 145,-47 148,-49 2,-3 -12,-74 -31,-158 -19,-84 -33,-155 -30,-158 2,-3 58,45 123,106 l 118,111 117,-111 c 65,-61 120,-108 123,-105 4,3 -10,75 -29,159 -24,103 -32,155 -25,159 6,4 76,26 154,50 79,23 144,46 144,49 0,4 -68,28 -151,53 -83,25 -153,47 -154,49 -2,2 12,72 32,156 19,84 33,156 29,159 -3,3 -58,-44 -123,-104 l -117,-111 -114,107 c -106,99 -132,120 -132,107 z"
       id="path2"
       inkscape:connector-curvature="0"
       style="fill:#d0ac69;fill-opacity:1;stroke:#000000;stroke-width:30;stroke-miterlimit:4;stroke-dasharray:none;stroke-opacity:1"
       sodipodi:nodetypes="sccccccsccccccccssccccccs" />
  </g>
  <g
     id="figure"
     transform="matrix(0.1,0,0,-0.1,187.27647,184.12291)"
     style="fill:#d0ac69;fill-opacity:1;stroke:#000000;stroke-width:30;stroke-miterlimit:4;stroke-dasharray:none;stroke-opacity:1"
     inkscape:transform-center-x="-13.476563"
     inkscape:transform-center-y="-13.476563">
    <path
       id="path822"
       d="m -827.74663,875.96619 c -36,-12 -49,-47 -49,-133 v -75 h -55 c -47,0 -57,-3 -70.99997,-25 -9,-14 4.60859,-72.3962 7.60859,-81.3962 4,-11 -11.42959,26.3962 -24.42959,30.3962 -9,2 -44.179,7 -70.179,11 -44,6 -48,9 -43,28 3,12 9,55 13,96 7,84 -3,101 -63,101 -54,0 -77,-28 -85,-104 -3,-37 -8,-69 -11,-71 -2,-2 -28,2 -57,10 -62,16 -96,7 -113,-30 -15,-34 3,-73 42,-88 17,-6 30,-15 30,-19 0,-5 -18,-32 -41,-60 -53,-68 -124,-216 -145,-303 -24,-101.000008 -22,-244.000008 4,-324 41,-125 136,-229 250,-272 86,-32 206,-24 295,19 77.99997,39 154.99997,105 197.99997,173 18,27 35,49 39,49 3,0 30,-25 60,-56 156,-160 345,-207 511,-125 162.999993,80 230.999993,208 230.999993,435.999992 0,167.000008 -43,284.000008 -152.999993,416.000008 -22,26 -39,49 -39,52 0,3 16,8 35,11 18.99999,4 40.999993,14 49.999993,22 22,23 18,69 -9,101 -26.762683,36.10264 -50.303533,21.49904 -90.999993,14 -71,-14 -84,-10 -85,29 0,30 -21,90 -36,105 -22,22 -80,19 -104,-5 -24,-24 -24,-27 -5,-105 8,-33 15,-65 15,-71 0,-6 -14.21094,-10.14063 -42.21094,-16.14063 -36.136,6.49331 -87.04874,-30.54439 -100.46533,-43.26929 -11.10395,-10.53148 -0.31717,-11.85665 21.64047,37.30252 3.67049,8.21757 -9.9642,30.1074 -23.9642,43.1074 -22,23 -32,25 -110,25 h -85 v 78 c 0,106 -27,142 -91,120 z m 429,-399 73,19 50,-60 c 162.99999,-196 208.999993,-496.000008 96,-625 -40,-45 -97,-71 -174,-79 -126,-13 -232,46 -322,180.999992 l -51,77.000001 v 267.000007 268 l 78,9 c 62.14943,-3.65962 103.09841,34.82185 99.97559,23.88246 -20.70564,-72.53302 0.83835,-114.72145 150.02441,-80.88246 z m -458,-218 V -19.033818 l -35,-71 c -43,-84.999992 -121.99997,-161.999992 -190.99997,-185.999992 -154,-52 -293,22 -325,171 -31,149.999992 49,408 175,558 l 34,40 78,-17 c 89,-18 114.8926,3.4654 126.89257,50.4654 -7.22417,74.2427 0.78261,11.5346 73.1074,11.5346 h 64 z"
       inkscape:connector-curvature="0"
       style="fill:#d0ac69;fill-opacity:1;stroke:#000000;stroke-width:30;stroke-miterlimit:4;stroke-dasharray:none;stroke-opacity:1"
       sodipodi:nodetypes="cscsccccccscccccsccccccsccscscccccsscscsscscscccccccccccsccccccccccscc" />
  </g>
</svg>
