<svg width="220pt" height="300pt" version="1.0" viewBox="0 0 220 267" >

  <g id="shield" x="0" y="0" fill="#ec2a32" stroke-width="37.5">
   <path d="m21.619 2635.2c-11.912-10.988-7.9414-1698.2 2.978-1791.1 24.817-204.78 78.421-328.65 189.6-442.53 63.531-63.932 92.318-84.91 168.75-120.87 51.619-24.974 148.9-60.935 217.39-80.914 276.96-80.914 368.28-118.87 460.6-189.8l47.648-35.962 51.619 39.958c70.48 54.942 174.71 101.89 323.61 145.85 366.3 108.88 464.57 158.83 562.84 289.69 51.619 69.926 67.502 98.895 94.304 173.82 51.619 149.84 50.626 129.86 54.597 1107.8l3.9707 911.03h-1086c-596.59 0-1089-2.9968-1091.9-6.9926z" fill="#ec2a32" stroke="#000" stroke-width="37.343"/>
  </g>
  <g id="star" transform="matrix(.1 0 0 -.1 46.01 268.96)" stroke-width="30">
   <path d="m381.82 2534.3c0-2 16-73 35-157 20-83 34-154 31-156-2-2-67-23-146-48-138-42-158-50-149-60 3-2 69-24 147-48 79-25 145-47 148-49 2-3-12-74-31-158s-33-155-30-158c2-3 58 45 123 106l118 111 117-111c65-61 120-108 123-105 4 3-10 75-29 159-24 103-32 155-25 159 6 4 76 26 154 50 79 23 144 46 144 49 0 4-68 28-151 53s-153 47-154 49c-2 2 12 72 32 156 19 84 33 156 29 159-3 3-58-44-123-104l-117-111-114 107c-106 99-132 120-132 107z" fill="#d0ac69" stroke="#000" stroke-width="30"/>
  </g>
  <g id="figure" transform="matrix(.1 0 0 -.1 187.28 184.12)" fill="#d0ac69" stroke-width="30">
   <path d="m-827.75 875.97c-36-12-49-47-49-133v-75h-55c-47 0-57-3-71-25-9-14 4.6086-72.396 7.6086-81.396 4-11-11.43 26.396-24.43 30.396-9 2-44.179 7-70.179 11-44 6-48 9-43 28 3 12 9 55 13 96 7 84-3 101-63 101-54 0-77-28-85-104-3-37-8-69-11-71-2-2-28 2-57 10-62 16-96 7-113-30-15-34 3-73 42-88 17-6 30-15 30-19 0-5-18-32-41-60-53-68-124-216-145-303-24-101-22-244 4-324 41-125 136-229 250-272 86-32 206-24 295 19 78 39 155 105 198 173 18 27 35 49 39 49 3 0 30-25 60-56 156-160 345-207 511-125 163 80 231 208 231 436 0 167-43 284-153 416-22 26-39 49-39 52s16 8 35 11c19 4 41 14 50 22 22 23 18 69-9 101-26.763 36.103-50.304 21.499-91 14-71-14-84-10-85 29 0 30-21 90-36 105-22 22-80 19-104-5s-24-27-5-105c8-33 15-65 15-71s-14.211-10.141-42.211-16.141c-36.136 6.4933-87.049-30.544-100.47-43.269-11.104-10.531-0.31717-11.857 21.64 37.303 3.6705 8.2176-9.9642 30.107-23.964 43.107-22 23-32 25-110 25h-85v78c0 106-27 142-91 120zm429-399 73 19 50-60c163-196 209-496 96-625-40-45-97-71-174-79-126-13-232 46-322 181l-51 77v535l78 9c62.149-3.6596 103.1 34.822 99.976 23.882-20.706-72.533 0.83835-114.72 150.02-80.882zm-458-218v-278l-35-71c-43-85-122-162-191-186-154-52-293 22-325 171-31 150 49 408 175 558l34 40 78-17c89-18 114.89 3.4654 126.89 50.465-7.2242 74.243 0.78261 11.535 73.107 11.535h64z" fill="#d0ac69" stroke="#000" stroke-width="30"/>
  </g>
</svg>
